<?xml version="1.0" standalone="no"?><!DOCTYPE svg PUBLIC "-//W3C//DTD SVG 1.1//EN" "http://www.w3.org/Graphics/SVG/1.1/DTD/svg11.dtd"><svg t="1754452532440" class="icon" viewBox="0 0 1024 1024" version="1.1" xmlns="http://www.w3.org/2000/svg" p-id="3023" xmlns:xlink="http://www.w3.org/1999/xlink" width="200" height="200"><path d="M926.464 390.0928h48.7936v48.7424h-48.7936zM926.464 341.3504h48.7936v48.7424h-48.7936zM926.464 292.5568h48.7936v48.7936h-48.7936zM926.464 243.8144h48.7936v48.7424h-48.7936z" fill="#012777" p-id="3024"></path><path d="M926.464 195.072h48.7936v48.7424h-48.7936zM926.464 146.2784h48.7936v48.7936h-48.7936zM926.464 97.536h48.7936v48.7424h-48.7936zM877.7216 487.6288h48.7424v48.7424h-48.7424zM877.7216 438.8352h48.7424v48.7936h-48.7424z" fill="#012777" p-id="3025"></path><path d="M877.7216 390.0928h48.7424v48.7424h-48.7424zM877.7216 341.3504h48.7424v48.7424h-48.7424zM877.7216 292.5568h48.7424v48.7936h-48.7424zM877.7216 243.8144h48.7424v48.7424h-48.7424z" fill="#DEE6FC" p-id="3026"></path><path d="M877.7216 195.072h48.7424v48.7424h-48.7424zM877.7216 146.2784h48.7424v48.7936h-48.7424zM877.7216 97.536h48.7424v48.7424h-48.7424z" fill="#DEE6FC" p-id="3027"></path><path d="M877.7216 48.7424h48.7424v48.7936h-48.7424zM828.928 731.4432h48.7936v48.7424h-48.7936zM828.928 682.6496h48.7936v48.7936h-48.7936zM828.928 536.3712h48.7936v48.7936h-48.7936z" fill="#012777" p-id="3028"></path><path d="M828.928 487.6288h48.7936v48.7424h-48.7936zM828.928 438.8352h48.7936v48.7936h-48.7936z" fill="#DEE6FC" p-id="3029"></path><path d="M828.928 390.0928h48.7936v48.7424h-48.7936zM828.928 341.3504h48.7936v48.7424h-48.7936zM828.928 292.5568h48.7936v48.7936h-48.7936zM828.928 243.8144h48.7936v48.7424h-48.7936z" fill="#DD75A1" p-id="3030"></path><path d="M828.928 195.072h48.7936v48.7424h-48.7936zM828.928 146.2784h48.7936v48.7936h-48.7936z" fill="#DD75A1" p-id="3031"></path><path d="M828.928 97.536h48.7936v48.7424h-48.7936z" fill="#DEE6FC" p-id="3032"></path><path d="M828.928 48.7424h48.7936v48.7936h-48.7936zM780.1856 780.1856h48.7424v48.7424h-48.7424z" fill="#012777" p-id="3033"></path><path d="M780.1856 731.4432h48.7424v48.7424h-48.7424zM780.1856 682.6496h48.7424v48.7936h-48.7424z" fill="#DEE6FC" p-id="3034"></path><path d="M780.1856 633.9072h48.7424v48.7424h-48.7424zM780.1856 585.1648h48.7424v48.7424h-48.7424z" fill="#012777" p-id="3035"></path><path d="M780.1856 536.3712h48.7424v48.7936h-48.7424z" fill="#DEE6FC" p-id="3036"></path><path d="M780.1856 487.6288h48.7424v48.7424h-48.7424zM780.1856 438.8352h48.7424v48.7936h-48.7424z" fill="#DD75A1" p-id="3037"></path><path d="M780.1856 390.0928h48.7424v48.7424h-48.7424zM780.1856 341.3504h48.7424v48.7424h-48.7424zM780.1856 292.5568h48.7424v48.7936h-48.7424z" fill="#012777" p-id="3038"></path><path d="M780.1856 243.8144h48.7424v48.7424h-48.7424z" fill="#DD75A1" p-id="3039"></path><path d="M780.1856 195.072h48.7424v48.7424h-48.7424zM780.1856 146.2784h48.7424v48.7936h-48.7424z" fill="#DD75A1" p-id="3040"></path><path d="M780.1856 97.536h48.7424v48.7424h-48.7424z" fill="#DEE6FC" p-id="3041"></path><path d="M780.1856 48.7424h48.7424v48.7936h-48.7424zM731.4432 828.928h48.7424v48.7936h-48.7424z" fill="#012777" p-id="3042"></path><path d="M731.4432 780.1856h48.7424v48.7424h-48.7424z" fill="#DEE6FC" p-id="3043"></path><path d="M731.4432 731.4432h48.7424v48.7424h-48.7424zM731.4432 682.6496h48.7424v48.7936h-48.7424z" fill="#DD75A1" p-id="3044"></path><path d="M731.4432 633.9072h48.7424v48.7424h-48.7424zM731.4432 585.1648h48.7424v48.7424h-48.7424z" fill="#DEE6FC" p-id="3045"></path><path d="M731.4432 536.3712h48.7424v48.7936h-48.7424zM731.4432 487.6288h48.7424v48.7424h-48.7424z" fill="#DD75A1" p-id="3046"></path><path d="M731.4432 438.8352h48.7424v48.7936h-48.7424z" fill="#012777" p-id="3047"></path><path d="M731.4432 390.0928h48.7424v48.7424h-48.7424zM731.4432 341.3504h48.7424v48.7424h-48.7424zM731.4432 292.5568h48.7424v48.7936h-48.7424z" fill="#375AA4" p-id="3048"></path><path d="M731.4432 243.8144h48.7424v48.7424h-48.7424z" fill="#012777" p-id="3049"></path><path d="M731.4432 195.072h48.7424v48.7424h-48.7424zM731.4432 146.2784h48.7424v48.7936h-48.7424z" fill="#DD75A1" p-id="3050"></path><path d="M731.4432 97.536h48.7424v48.7424h-48.7424z" fill="#DEE6FC" p-id="3051"></path><path d="M731.4432 48.7424h48.7424v48.7936h-48.7424zM682.6496 877.7216h48.7936v48.7424h-48.7936z" fill="#012777" p-id="3052"></path><path d="M682.6496 828.928h48.7936v48.7936h-48.7936z" fill="#DEE6FC" p-id="3053"></path><path d="M682.6496 780.1856h48.7936v48.7424h-48.7936z" fill="#DD75A1" p-id="3054"></path><path d="M682.6496 731.4432h48.7936v48.7424h-48.7936zM682.6496 682.6496h48.7936v48.7936h-48.7936zM682.6496 633.9072h48.7936v48.7424h-48.7936zM682.6496 585.1648h48.7936v48.7424h-48.7936zM682.6496 536.3712h48.7936v48.7936h-48.7936zM682.6496 487.6288h48.7936v48.7424h-48.7936z" fill="#DD75A1" p-id="3055"></path><path d="M682.6496 438.8352h48.7936v48.7936h-48.7936z" fill="#012777" p-id="3056"></path><path d="M682.6496 390.0928h48.7936v48.7424h-48.7936zM682.6496 341.3504h48.7936v48.7424h-48.7936zM682.6496 292.5568h48.7936v48.7936h-48.7936z" fill="#375AA4" p-id="3057"></path><path d="M682.6496 243.8144h48.7936v48.7424h-48.7936z" fill="#A2D8EA" p-id="3058"></path><path d="M682.6496 195.072h48.7936v48.7424h-48.7936z" fill="#012777" p-id="3059"></path><path d="M682.6496 146.2784h48.7936v48.7936h-48.7936z" fill="#DD75A1" p-id="3060"></path><path d="M682.6496 97.536h48.7936v48.7424h-48.7936z" fill="#DEE6FC" p-id="3061"></path><path d="M682.6496 48.7424h48.7936v48.7936h-48.7936zM633.9072 926.464h48.7424v48.7936h-48.7424z" fill="#012777" p-id="3062"></path><path d="M633.9072 877.7216h48.7424v48.7424h-48.7424z" fill="#DEE6FC" p-id="3063"></path><path d="M633.9072 828.928h48.7424v48.7936h-48.7424zM633.9072 780.1856h48.7424v48.7424h-48.7424z" fill="#DD75A1" p-id="3064"></path><path d="M633.9072 731.4432h48.7424v48.7424h-48.7424zM633.9072 682.6496h48.7424v48.7936h-48.7424zM633.9072 633.9072h48.7424v48.7424h-48.7424zM633.9072 585.1648h48.7424v48.7424h-48.7424zM633.9072 536.3712h48.7424v48.7936h-48.7424zM633.9072 487.6288h48.7424v48.7424h-48.7424z" fill="#DD75A1" p-id="3065"></path><path d="M633.9072 438.8352h48.7424v48.7936h-48.7424z" fill="#012777" p-id="3066"></path><path d="M633.9072 390.0928h48.7424v48.7424h-48.7424zM633.9072 341.3504h48.7424v48.7424h-48.7424z" fill="#375AA4" p-id="3067"></path><path d="M633.9072 292.5568h48.7424v48.7936h-48.7424zM633.9072 243.8144h48.7424v48.7424h-48.7424z" fill="#A2D8EA" p-id="3068"></path><path d="M633.9072 195.072h48.7424v48.7424h-48.7424z" fill="#012777" p-id="3069"></path><path d="M633.9072 146.2784h48.7424v48.7936h-48.7424z" fill="#DD75A1" p-id="3070"></path><path d="M633.9072 97.536h48.7424v48.7424h-48.7424z" fill="#DEE6FC" p-id="3071"></path><path d="M633.9072 48.7424h48.7424v48.7936h-48.7424zM585.1648 926.464h48.7424v48.7936h-48.7424z" fill="#012777" p-id="3072"></path><path d="M585.1648 877.7216h48.7424v48.7424h-48.7424zM585.1648 828.928h48.7424v48.7936h-48.7424z" fill="#DEE6FC" p-id="3073"></path><path d="M585.1648 780.1856h48.7424v48.7424h-48.7424z" fill="#012777" p-id="3074"></path><path d="M585.1648 731.4432h48.7424v48.7424h-48.7424zM585.1648 682.6496h48.7424v48.7936h-48.7424z" fill="#DEE6FC" p-id="3075"></path><path d="M585.1648 633.9072h48.7424v48.7424h-48.7424zM585.1648 585.1648h48.7424v48.7424h-48.7424zM585.1648 536.3712h48.7424v48.7936h-48.7424zM585.1648 487.6288h48.7424v48.7424h-48.7424zM585.1648 438.8352h48.7424v48.7936h-48.7424z" fill="#DD75A1" p-id="3076"></path><path d="M585.1648 390.0928h48.7424v48.7424h-48.7424z" fill="#012777" p-id="3077"></path><path d="M585.1648 341.3504h48.7424v48.7424h-48.7424zM585.1648 292.5568h48.7424v48.7936h-48.7424zM585.1648 243.8144h48.7424v48.7424h-48.7424z" fill="#A2D8EA" p-id="3078"></path><path d="M585.1648 195.072h48.7424v48.7424h-48.7424z" fill="#012777" p-id="3079"></path><path d="M585.1648 146.2784h48.7424v48.7936h-48.7424z" fill="#DD75A1" p-id="3080"></path><path d="M585.1648 97.536h48.7424v48.7424h-48.7424z" fill="#DEE6FC" p-id="3081"></path><path d="M585.1648 48.7424h48.7424v48.7936h-48.7424zM536.3712 877.7216h48.7936v48.7424h-48.7936zM536.3712 828.928h48.7936v48.7936h-48.7936zM536.3712 731.4432h48.7936v48.7424h-48.7936zM536.3712 682.6496h48.7936v48.7936h-48.7936z" fill="#012777" p-id="3082"></path><path d="M536.3712 633.9072h48.7936v48.7424h-48.7936z" fill="#DEE6FC" p-id="3083"></path><path d="M536.3712 585.1648h48.7936v48.7424h-48.7936zM536.3712 536.3712h48.7936v48.7936h-48.7936zM536.3712 487.6288h48.7936v48.7424h-48.7936zM536.3712 438.8352h48.7936v48.7936h-48.7936zM536.3712 390.0928h48.7936v48.7424h-48.7936z" fill="#DD75A1" p-id="3084"></path><path d="M536.3712 341.3504h48.7936v48.7424h-48.7936zM536.3712 292.5568h48.7936v48.7936h-48.7936zM536.3712 243.8144h48.7936v48.7424h-48.7936z" fill="#012777" p-id="3085"></path><path d="M536.3712 195.072h48.7936v48.7424h-48.7936z" fill="#DD75A1" p-id="3086"></path><path d="M536.3712 146.2784h48.7936v48.7936h-48.7936z" fill="#DEE6FC" p-id="3087"></path><path d="M536.3712 97.536h48.7936v48.7424h-48.7936zM487.6288 731.4432h48.7424v48.7424h-48.7424z" fill="#012777" p-id="3088"></path><path d="M487.6288 682.6496h48.7424v48.7936h-48.7424z" fill="#A2D8EA" p-id="3089"></path><path d="M487.6288 633.9072h48.7424v48.7424h-48.7424z" fill="#012777" p-id="3090"></path><path d="M487.6288 585.1648h48.7424v48.7424h-48.7424z" fill="#DEE6FC" p-id="3091"></path><path d="M487.6288 536.3712h48.7424v48.7936h-48.7424zM487.6288 487.6288h48.7424v48.7424h-48.7424zM487.6288 438.8352h48.7424v48.7936h-48.7424zM487.6288 390.0928h48.7424v48.7424h-48.7424zM487.6288 341.3504h48.7424v48.7424h-48.7424zM487.6288 292.5568h48.7424v48.7936h-48.7424zM487.6288 243.8144h48.7424v48.7424h-48.7424z" fill="#DD75A1" p-id="3092"></path><path d="M487.6288 195.072h48.7424v48.7424h-48.7424z" fill="#DD75A1" p-id="3093"></path><path d="M487.6288 146.2784h48.7424v48.7936h-48.7424z" fill="#DEE6FC" p-id="3094"></path><path d="M487.6288 97.536h48.7424v48.7424h-48.7424zM438.8352 731.4432h48.7936v48.7424h-48.7936z" fill="#012777" p-id="3095"></path><path d="M438.8352 682.6496h48.7936v48.7936h-48.7936z" fill="#375AA4" p-id="3096"></path><path d="M438.8352 633.9072h48.7936v48.7424h-48.7936z" fill="#A2D8EA" p-id="3097"></path><path d="M438.8352 585.1648h48.7936v48.7424h-48.7936z" fill="#012777" p-id="3098"></path><path d="M438.8352 536.3712h48.7936v48.7936h-48.7936z" fill="#DEE6FC" p-id="3099"></path><path d="M438.8352 487.6288h48.7936v48.7424h-48.7936zM438.8352 438.8352h48.7936v48.7936h-48.7936zM438.8352 390.0928h48.7936v48.7424h-48.7936zM438.8352 341.3504h48.7936v48.7424h-48.7936zM438.8352 292.5568h48.7936v48.7936h-48.7936zM438.8352 243.8144h48.7936v48.7424h-48.7936z" fill="#DD75A1" p-id="3100"></path><path d="M438.8352 195.072h48.7936v48.7424h-48.7936z" fill="#DEE6FC" p-id="3101"></path><path d="M438.8352 146.2784h48.7936v48.7936h-48.7936zM390.0928 828.928h48.7424v48.7936h-48.7424zM390.0928 682.6496h48.7424v48.7936h-48.7424z" fill="#012777" p-id="3102"></path><path d="M390.0928 633.9072h48.7424v48.7424h-48.7424z" fill="#375AA4" p-id="3103"></path><path d="M390.0928 585.1648h48.7424v48.7424h-48.7424z" fill="#A2D8EA" p-id="3104"></path><path d="M390.0928 536.3712h48.7424v48.7936h-48.7424z" fill="#012777" p-id="3105"></path><path d="M390.0928 487.6288h48.7424v48.7424h-48.7424z" fill="#DEE6FC" p-id="3106"></path><path d="M390.0928 438.8352h48.7424v48.7936h-48.7424zM390.0928 390.0928h48.7424v48.7424h-48.7424zM390.0928 341.3504h48.7424v48.7424h-48.7424zM390.0928 292.5568h48.7424v48.7936h-48.7424z" fill="#DD75A1" p-id="3107"></path><path d="M390.0928 243.8144h48.7424v48.7424h-48.7424z" fill="#DEE6FC" p-id="3108"></path><path d="M390.0928 195.072h48.7424v48.7424h-48.7424zM341.3504 877.7216h48.7424v48.7424h-48.7424zM341.3504 633.9072h48.7424v48.7424h-48.7424z" fill="#012777" p-id="3109"></path><path d="M341.3504 585.1648h48.7424v48.7424h-48.7424z" fill="#375AA4" p-id="3110"></path><path d="M341.3504 536.3712h48.7424v48.7936h-48.7424z" fill="#A2D8EA" p-id="3111"></path><path d="M341.3504 487.6288h48.7424v48.7424h-48.7424z" fill="#012777" p-id="3112"></path><path d="M341.3504 438.8352h48.7424v48.7936h-48.7424z" fill="#DEE6FC" p-id="3113"></path><path d="M341.3504 390.0928h48.7424v48.7424h-48.7424zM341.3504 341.3504h48.7424v48.7424h-48.7424zM341.3504 292.5568h48.7424v48.7936h-48.7424z" fill="#DD75A1" p-id="3114"></path><path d="M341.3504 243.8144h48.7424v48.7424h-48.7424z" fill="#DEE6FC" p-id="3115"></path><path d="M341.3504 195.072h48.7424v48.7424h-48.7424zM292.5568 926.464h48.7936v48.7936h-48.7936zM292.5568 780.1856h48.7936v48.7424h-48.7936z" fill="#012777" p-id="3116"></path><path d="M292.5568 731.4432h48.7936v48.7424h-48.7936zM292.5568 585.1648h48.7936v48.7424h-48.7936z" fill="#012777" p-id="3117"></path><path d="M292.5568 536.3712h48.7936v48.7936h-48.7936z" fill="#375AA4" p-id="3118"></path><path d="M292.5568 487.6288h48.7936v48.7424h-48.7936z" fill="#A2D8EA" p-id="3119"></path><path d="M292.5568 438.8352h48.7936v48.7936h-48.7936z" fill="#012777" p-id="3120"></path><path d="M292.5568 390.0928h48.7936v48.7424h-48.7936z" fill="#DEE6FC" p-id="3121"></path><path d="M292.5568 341.3504h48.7936v48.7424h-48.7936zM292.5568 292.5568h48.7936v48.7936h-48.7936zM292.5568 243.8144h48.7936v48.7424h-48.7936z" fill="#DD75A1" p-id="3122"></path><path d="M292.5568 195.072h48.7936v48.7424h-48.7936z" fill="#DEE6FC" p-id="3123"></path><path d="M292.5568 146.2784h48.7936v48.7936h-48.7936zM243.8144 828.928h48.7424v48.7936h-48.7424z" fill="#012777" p-id="3124"></path><path d="M243.8144 780.1856h48.7424v48.7424h-48.7424z" fill="#DEE6FC" p-id="3125"></path><path d="M243.8144 731.4432h48.7424v48.7424h-48.7424z" fill="#DD75A1" p-id="3126"></path><path d="M243.8144 682.6496h48.7424v48.7936h-48.7424zM243.8144 536.3712h48.7424v48.7936h-48.7424zM243.8144 487.6288h48.7424v48.7424h-48.7424zM243.8144 438.8352h48.7424v48.7936h-48.7424z" fill="#012777" p-id="3127"></path><path d="M243.8144 390.0928h48.7424v48.7424h-48.7424z" fill="#DEE6FC" p-id="3128"></path><path d="M243.8144 341.3504h48.7424v48.7424h-48.7424zM243.8144 292.5568h48.7424v48.7936h-48.7424zM243.8144 243.8144h48.7424v48.7424h-48.7424z" fill="#DD75A1" p-id="3129"></path><path d="M243.8144 195.072h48.7424v48.7424h-48.7424z" fill="#DEE6FC" p-id="3130"></path><path d="M243.8144 146.2784h48.7424v48.7936h-48.7424zM195.072 877.7216h48.7424v48.7424H195.072z" fill="#012777" p-id="3131"></path><path d="M195.072 828.928h48.7424v48.7936H195.072z" fill="#DEE6FC" p-id="3132"></path><path d="M195.072 780.1856h48.7424v48.7424H195.072z" fill="#DD75A1" p-id="3133"></path><path d="M195.072 731.4432h48.7424v48.7424H195.072z" fill="#DEE6FC" p-id="3134"></path><path d="M195.072 682.6496h48.7424v48.7936H195.072zM195.072 390.0928h48.7424v48.7424H195.072z" fill="#012777" p-id="3135"></path><path d="M195.072 341.3504h48.7424v48.7424H195.072zM195.072 292.5568h48.7424v48.7936H195.072z" fill="#DD75A1" p-id="3136"></path><path d="M195.072 243.8144h48.7424v48.7424H195.072z" fill="#DEE6FC" p-id="3137"></path><path d="M195.072 195.072h48.7424v48.7424H195.072zM146.2784 926.464h48.7936v48.7936h-48.7936z" fill="#012777" p-id="3138"></path><path d="M146.2784 877.7216h48.7936v48.7424h-48.7936z" fill="#DEE6FC" p-id="3139"></path><path d="M146.2784 828.928h48.7936v48.7936h-48.7936z" fill="#DD75A1" p-id="3140"></path><path d="M146.2784 780.1856h48.7936v48.7424h-48.7936z" fill="#DEE6FC" p-id="3141"></path><path d="M146.2784 731.4432h48.7936v48.7424h-48.7936zM146.2784 585.1648h48.7936v48.7424h-48.7936zM146.2784 438.8352h48.7936v48.7936h-48.7936z" fill="#012777" p-id="3142"></path><path d="M146.2784 390.0928h48.7936v48.7424h-48.7936z" fill="#DEE6FC" p-id="3143"></path><path d="M146.2784 341.3504h48.7936v48.7424h-48.7936z" fill="#DD75A1" p-id="3144"></path><path d="M146.2784 292.5568h48.7936v48.7936h-48.7936z" fill="#DEE6FC" p-id="3145"></path><path d="M146.2784 243.8144h48.7936v48.7424h-48.7936zM97.536 926.464h48.7424v48.7936h-48.7424z" fill="#012777" p-id="3146"></path><path d="M97.536 877.7216h48.7424v48.7424h-48.7424z" fill="#DD75A1" p-id="3147"></path><path d="M97.536 828.928h48.7424v48.7936h-48.7424z" fill="#DEE6FC" p-id="3148"></path><path d="M97.536 780.1856h48.7424v48.7424h-48.7424zM97.536 633.9072h48.7424v48.7424h-48.7424zM97.536 438.8352h48.7424v48.7936h-48.7424z" fill="#012777" p-id="3149"></path><path d="M97.536 390.0928h48.7424v48.7424h-48.7424zM97.536 341.3504h48.7424v48.7424h-48.7424z" fill="#DEE6FC" p-id="3150"></path><path d="M97.536 292.5568h48.7424v48.7936h-48.7424zM48.7424 877.7216h48.7936v48.7424H48.7424zM48.7424 828.928h48.7936v48.7936H48.7424zM48.7424 682.6496h48.7936v48.7936H48.7424zM48.7424 390.0928h48.7936v48.7424H48.7424zM48.7424 341.3504h48.7936v48.7424H48.7424z" fill="#012777" p-id="3151"></path></svg>